PathFileType	4	(X/Y/Z)	C:/Users/opensim2020/Desktop/walking_exp_matlab/subject02_walking10_straight_02.trc	
DataRate	CameraRate	NumFrames	NumMarkers	Units	OrigDataRate	OrigDataStartFrame	OrigNumFrames	
100.00	100.00	4	43	mm	100.00	1400	280	
Frame#	Time	LFHD			RFHD			LBHD			RBHD			C7			T10			CLAV			STRN			RBAK			LSHO			LUPA			LELB			LFRM			LWRA			LWRB			LFIN			RSHO			RUPA			RELB			RFRM			RWRA			RWRB			RFIN			LASI			RASI			LPSI			RPSI			LTHI			LKNE			LTIB			LANK			LHEE			LTOE			RTHI			RKNE			RTIB			RANK			RHEE			RTOE			*39			*40			*41			*42			
		X1	Y1	Z1	X2	Y2	Z2	X3	Y3	Z3	X4	Y4	Z4	X5	Y5	Z5	X6	Y6	Z6	X7	Y7	Z7	X8	Y8	Z8	X9	Y9	Z9	X10	Y10	Z10	X11	Y11	Z11	X12	Y12	Z12	X13	Y13	Z13	X14	Y14	Z14	X15	Y15	Z15	X16	Y16	Z16	X17	Y17	Z17	X18	Y18	Z18	X19	Y19	Z19	X20	Y20	Z20	X21	Y21	Z21	X22	Y22	Z22	X23	Y23	Z23	X24	Y24	Z24	X25	Y25	Z25	X26	Y26	Z26	X27	Y27	Z27	X28	Y28	Z28	X29	Y29	Z29	X30	Y30	Z30	X31	Y31	Z31	X32	Y32	Z32	X33	Y33	Z33	X34	Y34	Z34	X35	Y35	Z35	X36	Y36	Z36	X37	Y37	Z37	X38	Y38	Z38	X39	Y39	Z39	X40	Y40	Z40	X41	Y41	Z41	X42	Y42	Z42	X43	Y43	Z43	

1	0.000	-988.22430	1060.00781	1763.06836	-1131.35242	1067.35767	1741.08789	-969.68488	1181.47192	1675.52100	-1109.84167	1200.35291	1650.42908	-1043.03430	1235.10181	1540.37378	-1053.07678	1293.42822	1266.00916	-1033.66736	1095.28271	1472.70251	-1050.17468	1047.32556	1299.37085	-1115.27405	1294.35730	1370.93274	-862.80573	1160.38440	1511.97156	-781.84912	1191.54688	1311.14709	-774.31384	1207.84460	1171.50146	-766.91504	1207.07837	1038.72974	-808.99701	1165.16028	910.34900	-769.66602	1205.98926	915.47888	-771.21240	1192.61597	849.79047	-1229.36987	1152.11072	1513.77832	-1325.26489	1161.00671	1325.41833	-1347.93420	1132.86877	1181.16638	-1367.00708	1084.73743	1071.31323	-1348.42810	1016.57440	955.10004	-1382.50806	1060.47021	944.11749	-1386.47998	1011.18713	890.99152	-934.20306	1054.86475	1003.98706	-1188.56677	1071.35254	990.95776	-998.69318	1268.72473	1046.56470	-1113.64429	1280.88733	1047.72070	-860.22144	1067.61877	696.23340	-880.72620	1051.24316	504.66849	-884.85956	1155.92212	345.52798	-908.75909	1214.20190	129.89273	-966.27332	1246.19299	107.00791	-872.10242	1083.05212	57.17463	-1240.42578	1159.22693	683.30469	-1194.59448	1162.02612	473.56146	-1190.21899	1208.16028	289.73822	-1145.62146	1223.52368	97.81131	-1085.44849	1250.83826	44.17495	-1178.81628	1073.66321	43.00966	-1072.72131	1173.27234	1815.24316	-3356.88525	2845.90186	1034.19678						 
2	0.010	-989.27924	1054.20166	1763.19226	-1132.42822	1061.06641	1741.40149	-971.35577	1175.43921	1675.40710	-1111.54529	1193.98071	1650.56580	-1045.15259	1228.84692	1540.51685	-1055.23413	1287.63892	1266.39050	-1035.30688	1089.03223	1472.84924	-1052.25562	1041.24377	1299.42700	-1117.88330	1287.91309	1371.40161	-864.74280	1155.03882	1511.84338	-783.93378	1187.10205	1311.35889	-776.42065	1203.77478	1171.42065	-769.94427	1201.74060	1038.39197	-812.34222	1157.80396	911.00800	-774.10242	1198.98962	915.22046	-775.79333	1184.38794	849.71393	-1230.94910	1144.86267	1514.35461	-1327.88611	1151.97119	1326.36511	-1350.65369	1122.83020	1182.33984	-1369.43677	1073.73523	1072.70947	-1349.64868	1005.31738	956.83148	-1384.58704	1048.41296	945.69202	-1388.02417	998.75623	892.92377	-936.00452	1049.11938	1004.27051	-1190.08545	1067.01624	989.89417	-1000.01740	1263.18127	1046.97412	-1114.93640	1275.39380	1047.85071	-861.88702	1060.48315	697.18787	-883.13452	1042.75024	504.52310	-887.35065	1141.10010	340.55969	-911.56506	1190.25183	122.86227	-968.93030	1220.68872	98.84450	-875.58813	1056.14160	54.88166	-1241.07458	1155.95569	682.99292	-1194.67017	1159.99927	473.24506	-1190.33008	1206.98608	289.74252	-1145.54224	1223.27734	97.89916	-1085.33081	1250.41431	44.11240	-1178.94873	1073.68359	42.94771	-1074.07092	1167.33704	1815.31201	-3356.94531	2845.88794	1034.15759						 
3	0.020	-990.42688	1048.21960	1763.08679	-1133.37415	1054.73840	1741.66309	-972.78314	1169.65356	1675.19031	-1113.11780	1187.58167	1650.56873	-1047.21521	1222.64465	1540.55493	-1057.28894	1281.84106	1266.64575	-1036.91931	1082.81274	1472.86121	-1054.01477	1035.26453	1299.32849	-1120.38721	1281.50964	1371.75037	-866.61053	1149.67383	1511.65735	-786.05853	1182.72742	1311.39856	-778.43866	1199.60583	1171.28821	-773.04590	1196.36157	1038.06616	-816.11377	1150.21692	911.60779	-777.89099	1192.43689	914.94159	-780.25482	1176.27869	849.69952	-1232.50964	1137.67566	1514.76245	-1329.60669	1143.16882	1326.94177	-1352.99866	1112.86255	1183.26013	-1371.21973	1062.83557	1073.91858	-1351.15479	993.74677	958.67944	-1386.53979	1036.50745	947.21875	-1389.45972	986.41443	894.75165	-937.58044	1043.35901	1004.27985	-1192.17896	1061.17383	989.36591	-1001.30103	1257.58130	1047.21155	-1116.16150	1269.84436	1047.95337	-863.69647	1053.31042	698.00427	-885.41620	1034.62830	504.22046	-889.19702	1126.16492	335.79489	-913.88318	1166.03479	116.24915	-971.37537	1196.20007	91.75460	-879.01080	1029.11572	52.91292	-1241.63464	1152.51208	682.58661	-1194.98804	1157.96826	473.00916	-1190.45190	1205.87000	289.77542	-1145.42334	1223.08020	97.98811	-1085.16528	1250.35242	44.22256	-1179.06238	1073.71436	42.90354	-1075.42688	1161.28503	1815.19385	-3356.84888	2846.09619	1034.06018						 
4	0.030	-991.19476	1042.46814	1762.97852	-1134.32129	1048.40930	1741.80212	-974.18750	1163.81909	1674.87561	-1114.68787	1181.21606	1650.52197	-1049.08862	1216.37427	1540.45227	-1059.21387	1275.98291	1266.81262	-1038.52930	1076.59753	1472.80725	-1055.78479	1029.13318	1298.87549	-1122.71008	1275.14197	1372.00110	-868.35339	1144.19446	1511.33875	-788.07660	1178.05359	1311.30408	-780.95880	1194.97095	1170.95007	-776.12085	1190.59387	1037.49548	-819.32941	1142.70105	912.22498	-782.03027	1185.45215	914.44409	-784.26978	1167.95679	849.60468	-1234.17627	1130.57996	1515.24646	-1332.02234	1134.54077	1327.62061	-1355.16687	1103.02881	1184.02563	-1373.08289	1052.05566	1075.13647	-1352.48718	982.41455	960.32227	-1388.33826	1024.69604	948.57159	-1390.66577	974.14954	896.48541	-938.66052	1037.22437	1004.35889	-1193.86194	1055.46741	988.70435	-1002.48706	1251.89319	1047.20947	-1117.38342	1264.25842	1047.95813	-864.67499	1046.13757	698.68427	-887.58051	1026.71948	503.74640	-891.09650	1111.03894	331.18930	-915.85669	1141.32324	110.13370	-973.20300	1171.09326	84.89167	-882.26123	1001.94379	51.92590	-1242.32739	1149.07971	682.36768	-1195.42004	1155.88513	472.76120	-1190.50562	1204.81201	289.76309	-1145.26086	1222.76587	98.02615	-1085.00940	1250.30933	44.31908	-1179.12646	1073.88013	42.74853	-1076.51208	1155.23218	1815.05591	-3356.95313	2845.88525	1034.07495						 
